<svg id="Layer_1" data-name="Layer 1" xmlns="http://www.w3.org/2000/svg" viewBox="0 0 1920 1080"><defs><style>.cls-1,.cls-6{fill:#fff;}.cls-1,.cls-10,.cls-7,.cls-8,.cls-9{stroke:#000;}.cls-1,.cls-10,.cls-14,.cls-15,.cls-2,.cls-3,.cls-7,.cls-8,.cls-9{stroke-miterlimit:10;}.cls-1{stroke-width:4.02px;}.cls-2,.cls-4{fill:#2e3192;}.cls-15,.cls-2{stroke:#1b1464;}.cls-2,.cls-3{stroke-width:9.5px;}.cls-3{fill:#e8b923;stroke:#d4af37;}.cls-5{fill:#e3b130;}.cls-7,.cls-8,.cls-9{fill:#f2f2f2;}.cls-7{stroke-width:1.28px;}.cls-8{stroke-width:1.2px;}.cls-9{stroke-width:0.72px;}.cls-10{fill:gray;stroke-width:0.48px;}.cls-11{fill:#fbc732;}.cls-12{fill:#c79e28;}.cls-13{fill:#fb8e21;}.cls-14,.cls-15{fill:none;stroke-width:3.55px;}.cls-14{stroke:#2e3192;}.cls-16{fill:#d4af37;}</style></defs><path class="cls-1" d="M489.36,506.15a10.32,10.32,0,0,1,10.79-.24"/><path class="cls-2" d="M850,751.57C763.69,872,647.19,947.44,498.44,975c-174.44-53.75-296-125.72-355-219.22l-3.48-442.64C318,269.25,433.69,194,491.48,89.71c51.54,101.8,169.19,175.17,355,219.22Z"/><path class="cls-3" d="M825.64,735.67C744.92,848.22,636,918.81,496.88,944.58c-163.13-50.26-276.81-117.55-332-205l-3.25-413.86c166.49-41,274.71-111.35,328.76-208.91,48.19,95.19,158.22,163.79,332,205Z"/><path class="cls-4" d="M269.74,309.94h225a0,0,0,0,1,0,0v259a0,0,0,0,1,0,0H246.19a0,0,0,0,1,0,0V333.49A23.55,23.55,0,0,1,269.74,309.94Z"/><path class="cls-5" d="M414.37,427.65c31.68,4.06,57.42,15.75,57.42,40.4,0,17.28-12.54,31-32,39.14-17.16,7.37-34,9.91-57.09,9.91H301.52V510c28-2,29.69-4.32,29.69-24.39V383.68c0-21.09-3-22.87-29.69-24.65v-7.11H388c24.75,0,40.26,3.3,50.82,8.89,11.55,6.1,19.47,15.5,19.47,28.46C458.26,413.16,432.85,424.09,414.37,427.65Zm-37.95-3c36.3,0,51.15-11.18,51.15-32,0-17.79-14.19-31.51-45.87-31.51-9.24,0-15.18.76-18.48,2.54-2.64,1.52-3.63,4.32-3.63,12.45V424.6Zm-16.83,60.48c0,18.29,5.61,22.87,29,22.87,25.74,0,50.82-10.67,50.82-37.36,0-25.92-23.76-37.1-64-37.1H359.59Z"/><path class="cls-4" d="M494.76,564.59H743.32a0,0,0,0,1,0,0V800a23.55,23.55,0,0,1-23.55,23.55h-225a0,0,0,0,1,0,0v-259A0,0,0,0,1,494.76,564.59Z"/><path class="cls-6" d="M494.76,305.63h225a23.55,23.55,0,0,1,23.55,23.55V564.59a0,0,0,0,1,0,0H494.76a0,0,0,0,1,0,0v-259A0,0,0,0,1,494.76,305.63Z"/><path class="cls-6" d="M246.19,564.59H494.76a0,0,0,0,1,0,0v259a0,0,0,0,1,0,0h-225A23.55,23.55,0,0,1,246.19,800V564.59A0,0,0,0,1,246.19,564.59Z"/><path class="cls-7" d="M542.74,359.87h147.6a15.57,15.57,0,0,1,15.57,15.57V476.82a0,0,0,0,1,0,0H527.17a0,0,0,0,1,0,0V375.44A15.57,15.57,0,0,1,542.74,359.87Z"/><path class="cls-8" d="M546.12,364.37H687A14.59,14.59,0,0,1,701.55,379v93.36a0,0,0,0,1,0,0h-170a0,0,0,0,1,0,0V379A14.59,14.59,0,0,1,546.12,364.37Z"/><path class="cls-9" d="M506.46,476.82H726.62a0,0,0,0,1,0,0v12.94A9.22,9.22,0,0,1,717.4,499H515.68a9.22,9.22,0,0,1-9.22-9.22V476.82A0,0,0,0,1,506.46,476.82Z"/><rect class="cls-10" x="603.46" y="488.28" width="27.25" height="9.17" rx="1.63"/><path class="cls-11" d="M589.9,676.07l-4.85,1.25,15.22,45a2.88,2.88,0,0,0,3.29,2h.05a2.42,2.42,0,0,0,1.51-3.25Z"/><polygon class="cls-12" points="587.3 671.18 584.19 671.98 585.92 677.09 589.03 676.3 587.3 671.18"/><polygon class="cls-11" points="587.59 669.25 582.74 670.5 583.32 672.2 588.17 670.96 587.59 669.25"/><path class="cls-11" d="M602,673l-4.85,1.25,15.22,45a2.89,2.89,0,0,0,3.29,2l0,0a2.42,2.42,0,0,0,1.51-3.25Z"/><polygon class="cls-12" points="599.43 668.07 596.32 668.87 598.05 673.98 601.16 673.19 599.43 668.07"/><polygon class="cls-11" points="599.73 666.15 594.87 667.39 595.45 669.09 600.3 667.85 599.73 666.15"/><path class="cls-11" d="M614.16,669.86l-4.85,1.24,15.22,45a2.89,2.89,0,0,0,3.29,2h0a2.42,2.42,0,0,0,1.51-3.25Z"/><polygon class="cls-12" points="611.56 664.97 608.45 665.76 610.18 670.88 613.29 670.08 611.56 664.97"/><polygon class="cls-11" points="611.86 663.04 607 664.28 607.58 665.99 612.43 664.74 611.86 663.04"/><path class="cls-13" d="M552.88,685l5.4,16c1-5.88,7-7.57,7-7.57l-1.8-5.32A12.18,12.18,0,0,1,552.88,685Z"/><path class="cls-11" d="M633.08,712.66l-37.31,9.55c-8.4,2.16-17.77-3.59-20.88-12.8l-.1-.29c-3.11-9.21,1.19-18.46,9.58-20.61L621.69,679c8.4-2.15,17.76,3.59,20.88,12.8l.1.3C645.78,701.26,641.48,710.5,633.08,712.66ZM585.72,692.5c-6.39,1.64-9.66,8.67-7.29,15.68l.1.3c2.37,7,9.5,11.38,15.89,9.74l37.32-9.56C638.13,707,641.4,700,639,693l-.1-.3c-2.37-7-9.5-11.38-15.89-9.74Z"/><path class="cls-11" d="M654,664.89l-90.58,23.2,1.8,5.32,90.58-23.2c2.14-.55,23.59-4,42.11,15.71l-18.29-54.1C676.33,657.12,656.16,664.34,654,664.89Z"/><ellipse class="cls-14" cx="369.67" cy="683.7" rx="55.19" ry="52.9"/><ellipse class="cls-14" cx="369.67" cy="683.7" rx="31.68" ry="30.37"/><path class="cls-15" d="M443.65,700.12a63.25,63.25,0,0,1-9.48,19.65l11.17,21.53a94.68,94.68,0,0,1-12.75,13.2l-26-11.61a81.35,81.35,0,0,1-16.2,5.89l-10,28.21a101.37,101.37,0,0,1-10.65.57q-3.32,0-6.57-.22l-10.91-27.82a82.07,82.07,0,0,1-17.84-5.89l-26.23,12a94.55,94.55,0,0,1-12.3-12.12l10.61-22a63.9,63.9,0,0,1-10.75-21.38L274.3,693a89,89,0,0,1-.47-9.28c0-3,.13-5.92.42-8.82l21.35-7.32a63.73,63.73,0,0,1,9.92-20.43l-11.15-21.51a96.15,96.15,0,0,1,12.56-12.88l26.13,11.65a80.68,80.68,0,0,1,16.63-5.94l10-28.1a97.07,97.07,0,0,1,10-.51c2.43,0,4.83.08,7.21.26L387.83,618a80.19,80.19,0,0,1,17.51,5.9l26.13-12a94.19,94.19,0,0,1,12.46,12.4L433.3,646.44a63.63,63.63,0,0,1,10.3,20.65L465,674.23a92.52,92.52,0,0,1,.48,9.47,90.76,90.76,0,0,1-.44,9.07Z"/><path class="cls-16" d="M1029.42,361.35c22.4,3,39,11,39,26.85,0,10.61-8.5,20-21.2,25.27-11.29,4.69-24.51,6.78-40.48,6.78h-59v-5.61c17.55-1.32,19.08-2.38,19.08-16V334.44c0-13.85-2.55-15.22-18.94-16.16v-5.61h63.64c16.64,0,27.12,1.83,35.3,5.8,8,4,13.26,10.2,13.26,18.42C1060.1,351.27,1043,359.14,1029.42,361.35Zm-27-2.1c22.05,0,30.52-7,30.52-19.67,0-13.41-11.46-20.09-26.72-20.09-5.58,0-9.11.5-11,1.44-2.18,1.1-2.27,2.71-2.27,6.82v31.5Zm-9.5,39.07c0,11.91,6,15.32,19.21,15.22,13.87-.11,27.44-7.71,27.44-23.79,0-16.35-12.55-23.84-37.95-23.84h-8.7Z"/><path class="cls-16" d="M1171,404.78c-13.65,14.32-30.47,17.45-38.94,17.45-28.55,0-45.11-16.44-45.11-35.9,0-11.47,6.56-22.54,15.72-29.5a55.64,55.64,0,0,1,33.78-11.76c20.71,0,35.51,13.06,35.37,26.51-.08,3-.45,5.34-3.4,5.89-4.26.77-34.27,2-57.3,2.71.34,19.16,15.09,28.16,30.85,28.16a44.92,44.92,0,0,0,25.23-7.8Zm-39.26-53.1c-9.26,0-17.58,7.55-19.52,20.74,10.17-.11,19.92-.22,30.46-.5,3.39-.11,4.71-.61,4.71-3.31C1147.59,360.16,1141.61,351.68,1131.72,351.68Z"/><path class="cls-16" d="M1181.33,420.25V415c13.08-1.32,14-2.15,14-12.75V325.53c0-9.12-1.24-10.12-13.6-11.76v-4.95c14-1.1,28.8-3.32,38.12-5.63v99c0,10.93.89,11.65,14.05,12.75v5.28Z"/><path class="cls-16" d="M1244.4,420.25V415c12.57-1.1,14-1.82,14-13.4V368.66c0-10.8-.95-11.46-12.29-12.68V351a263.26,263.26,0,0,0,36.81-6.19v56.72c0,11.25,1.11,12.3,14.41,13.4v5.28Zm24.73-87.64c-7.58,0-14.37-4.89-14.37-10.71,0-6.26,6.79-10.82,14.59-10.82s14.22,4.56,14.22,10.82C1283.57,327.72,1277.23,332.61,1269.13,332.61Z"/><path class="cls-16" d="M1391.59,404.78c-13.64,14.32-30.47,17.45-38.94,17.45-28.55,0-45.11-16.44-45.11-35.9,0-11.47,6.56-22.54,15.72-29.5A55.64,55.64,0,0,1,1357,345.07c20.71,0,35.51,13.06,35.37,26.51-.08,3-.45,5.34-3.4,5.89-4.26.77-34.27,2-57.3,2.71.34,19.16,15.09,28.16,30.85,28.16a44.92,44.92,0,0,0,25.23-7.8Zm-39.26-53.1c-9.26,0-17.58,7.55-19.52,20.74,10.17-.11,19.92-.22,30.46-.5,3.39-.11,4.71-.61,4.71-3.31C1368.2,360.16,1362.22,351.68,1352.33,351.68Z"/><path class="cls-16" d="M1508.79,352.28c-11.88,1.37-13.56,3-18.56,11.55-7.55,13.24-19.37,34.17-32,58.24H1450c-10.38-20-20.73-39.59-31.21-58.74-4.34-8-6.39-9.62-17.83-11.05v-5.22h51.45v5.22c-10.67,1.37-11.68,2.64-8.73,8.68,5.5,11.42,13.88,27.88,18.32,36.35,5.2-9.89,12.6-24,17.59-35.13,2.73-6.06,2.22-8.74-11.73-9.9v-5.22h40.89Z"/><path class="cls-16" d="M1596.59,404.78c-13.65,14.32-30.48,17.45-38.95,17.45-28.55,0-45.11-16.44-45.11-35.9,0-11.47,6.57-22.54,15.73-29.5A55.62,55.62,0,0,1,1562,345.07c20.71,0,35.51,13.06,35.37,26.51-.08,3-.45,5.34-3.4,5.89-4.25.77-34.27,2-57.3,2.71.34,19.16,15.09,28.16,30.85,28.16a44.9,44.9,0,0,0,25.23-7.8Zm-39.27-53.1c-9.26,0-17.58,7.55-19.52,20.74,10.18-.11,19.92-.22,30.47-.5,3.38-.11,4.7-.61,4.7-3.31C1573.19,360.16,1567.21,351.68,1557.32,351.68Z"/><path class="cls-16" d="M1060.76,546.74c-1.69,6.34-8.34,23.56-10.51,28.2H937.86v-5.53c20.63-1.16,22.48-2.19,22.48-16v-63.2c0-13.79-2.31-14.93-20.09-16v-5.53H1009v5.53c-18.23,1.2-20.63,2.17-20.63,16v64.51c0,9.34.95,12.79,13.85,13,.38.1,13.15.16,14.24.16,12.72,0,16.19-1.62,21.67-5.92,4.89-3.61,10.5-10.47,14.43-16.94Z"/><path class="cls-16" d="M1165.62,559.66a60.71,60.71,0,0,1-41,17.24c-30.07,0-47.51-16.24-47.51-35.46,0-11.33,6.91-22.27,16.56-29.14a61.16,61.16,0,0,1,35.57-11.61c21.82,0,37.41,12.89,37.25,26.18-.08,3-.47,5.27-3.57,5.82-4.49.76-36.1,2-60.35,2.67.36,18.93,15.89,27.82,32.49,27.82a49.55,49.55,0,0,0,26.57-7.7Zm-41.35-52.44c-9.76,0-18.52,7.45-20.56,20.48,10.71-.11,21-.21,32.08-.49,3.57-.11,5-.61,5-3.27A16.17,16.17,0,0,0,1124.27,507.22Z"/><path class="cls-16" d="M1256.87,576.9c-5.29,0-10.38-1.41-13.15-3.32a16,16,0,0,1-5.86-6.5c-9,4.2-20.32,9.82-25.69,9.82-18.71,0-30.37-10.49-30.37-20.74,0-8.44,5.8-12.82,18.24-16.14,13.83-3.54,31.81-7.57,37-10.73v-5.82c0-9.59-5.78-15-16.47-15a14.28,14.28,0,0,0-9.83,3.44c-2.7,2.5-3.87,5.88-5.8,10.73-1.46,3.78-4.6,4.93-8.83,4.93-5.46,0-12.45-3.7-12.45-8,0-2.72,2.86-4.79,7.94-7.29,9.13-4.39,22.72-9.58,35.77-11.54,8.46,0,16.09,1.47,22.32,4.62,9.31,4.9,12.42,11.31,12.42,19.71v29.42c0,7.73,3.79,9.81,7.66,9.81a23.85,23.85,0,0,0,7.58-1.48l2.47,5.21Zm-19.78-41.25c-4.49,1.69-11.09,4-16,5.7-7.75,2.67-12.32,5.67-12.32,11.4,0,9,9.11,12.48,15,12.48a24.07,24.07,0,0,0,13.27-3.76Z"/><path class="cls-16" d="M1346.9,574.94h-58.4v-5.22c13.09-1,14.33-1.79,14.33-11.89V522.66c0-9.09-.93-9.79-12.71-11.25v-4.73a252.32,252.32,0,0,0,38.54-6.38v17.77c9.61-10.31,18.44-17.38,28.66-17.38,8.58,0,14.49,4,14.49,9.12,0,6.52-6.56,10.75-10.43,12.17a7.56,7.56,0,0,1-6.78-.64c-3.77-2.35-6.7-4.62-10.72-4.62s-10.73,3.16-15.22,10.11v30.95c0,10.15,1.46,10.75,18.24,11.94Z"/><path class="cls-16" d="M1446.49,574.94v-5.22c11-1,12-1.8,12-13V529.09c0-11.55-7.3-16.58-17.92-16.58-7.24,0-13.72,2.44-20.3,6.16v39.11c0,10.43,1.09,11,12,11.94v5.22h-52.45v-5.22c13.18-1.35,14.57-1.69,14.57-12.37V523.46c0-10.09-1.77-10.58-12.77-12.05v-4.89a270.51,270.51,0,0,0,38.9-6.33c-.15,2.81-.3,8.36-.3,12.17,4.64-2.28,9.58-4.74,15.15-7.2,6.79-2.94,11.76-4.47,18.48-4.47,18.68,0,30.42,9.64,30.42,26v30.95c0,10.48,1.39,11,13.32,12.05v5.22Z"/><path class="cls-16" d="M1510.05,574.94v-5.22c13.24-1.08,14.71-1.79,14.71-13.23V524c0-10.67-1-11.32-12.94-12.53v-4.88a293,293,0,0,0,38.77-6.12v56c0,11.12,1.17,12.15,15.17,13.23v5.22Zm26-86.56c-8,0-15.14-4.83-15.14-10.58,0-6.19,7.14-10.69,15.37-10.69s15,4.5,15,10.69C1551.31,483.55,1544.62,488.38,1536.1,488.38Z"/><path class="cls-16" d="M1643.4,574.94v-5.22c11-1,12-1.8,12-13V529.09c0-11.55-7.3-16.58-17.92-16.58-7.24,0-13.72,2.44-20.3,6.16v39.11c0,10.43,1.09,11,12,11.94v5.22h-52.45v-5.22c13.18-1.35,14.57-1.69,14.57-12.37V523.46c0-10.09-1.77-10.58-12.77-12.05v-4.89a270.87,270.87,0,0,0,38.91-6.33c-.16,2.81-.31,8.36-.31,12.17,4.64-2.28,9.58-4.74,15.15-7.2,6.79-2.94,11.76-4.47,18.48-4.47,18.68,0,30.42,9.64,30.42,26v30.95c0,10.48,1.39,11,13.32,12.05v5.22Z"/><path class="cls-16" d="M1740.48,550c-3.45,2.26-5.39,4.73-5.39,6.47,0,2.73,4.24,6.11,13.62,6.11,7.81,0,18.45-.06,26.09-.06,14.38,0,34.43,3.86,34.43,19.94,0,17.95-30.76,33.12-61.57,33.12-28.89,0-42.72-10.57-42.88-19.79,0-3.81,2.09-6.6,6.55-9.11,5.68-3.22,12.76-6.91,17.94-9.43-8.94-2.16-14.21-5.61-17.38-9-2.53-2.56-3.68-6.24-3.38-8.3,10.16-2.93,19.24-7.72,23.72-11.71Zm11.12,1.64c-24.71,0-42.09-9.75-42.09-24.69,0-18,23.93-26.45,43.81-26.45a71.8,71.8,0,0,1,24.79,4.2c10.06,0,25.61-1.21,31.65-2.35l1.24,1.37c-1.39,2.82-4.65,7.93-8.57,9.62-3.78,0-10.67-.66-13.91-.82a17.89,17.89,0,0,1,6,13.92C1794.48,543.31,1773.33,551.65,1751.6,551.65Zm3.67,26.1c-11.65,0-17.2,1-20.92,3.22-4.83,2.81-8.1,6.65-8.1,10.54,0,8.78,12.15,15.48,31.34,15.48s30.9-6.63,30.9-16c0-5.88-4.91-10-11.85-11.51C1770.55,578.08,1764.25,577.75,1755.27,577.75Zm-3.52-71.37c-8.32,0-16.23,6.28-16.23,18.56,0,11.74,6.71,20.84,18.25,20.84,9.44-.12,15.91-6.59,15.91-18.87C1769.68,515.75,1763.52,506.38,1751.75,506.38Z"/><path class="cls-16" d="M1087.59,701.59c-3.2,8.49-9.13,21.33-12.71,27.12-6.18,1-24.58,4.36-41.94,4.36-59,0-85.26-29-85.26-57.3,0-35.46,35.84-59.63,89.37-59.63,19.79,0,36.81,3.43,43.16,4.07,1.07,8,2.66,19.87,4.34,27.81l-8.41,1.21c-4.72-12.77-11.09-19.39-23-23-5.64-1.85-14.27-2.72-21.31-2.72-34.71,0-52.5,20.9-52.5,48.42,0,32.12,22,53.47,55.23,53.47,20.62,0,32.93-7.75,45-26.1Z"/><path class="cls-16" d="M1193.44,714.39c-14.17,14.9-31.64,18.16-40.43,18.16-29.64,0-46.84-17.11-46.84-37.36,0-11.94,6.82-23.46,16.33-30.7a57.73,57.73,0,0,1,35.07-12.23c21.5,0,36.87,13.58,36.72,27.58-.08,3.11-.47,5.56-3.53,6.14-4.42.8-35.58,2.12-59.49,2.81.35,19.94,15.67,29.3,32,29.3a46.56,46.56,0,0,0,26.19-8.11Zm-40.76-55.25c-9.61,0-18.26,7.85-20.27,21.57,10.56-.11,20.68-.22,31.63-.51,3.52-.11,4.89-.64,4.89-3.45C1169.16,668,1163,659.14,1152.68,659.14Z"/><path class="cls-16" d="M1272.56,730.48V725c10.87-1,11.79-1.9,11.79-13.73V682.18c0-12.17-7.19-17.46-17.66-17.46-7.14,0-13.52,2.56-20,6.49V712.4c0,11,1.08,11.56,11.88,12.59v5.49h-51.7V725c13-1.43,14.36-1.78,14.36-13v-35.7c0-10.63-1.75-11.15-12.6-12.7V658.4a250.6,250.6,0,0,0,38.36-6.66c-.15,3-.3,8.8-.3,12.82,4.57-2.41,9.44-5,14.94-7.58,6.69-3.1,11.59-4.72,18.21-4.72,18.42,0,30,10.16,30,27.42v32.61c0,11,1.37,11.55,13.13,12.7v5.49Z"/><path class="cls-16" d="M1381.86,730.54a30.73,30.73,0,0,1-9.37,2c-16.55,0-26.09-6.38-26.09-21.39V662.39h-15l-1.21-2.06,6.46-6h9.77V640c6.56-3.89,16.15-9,22.87-12.93l3.13,1c-.31,5.56-.69,15-.54,26.27h24c2,1.72,1.22,6.52-1.67,8.07h-22.29v42.86c0,13.61,7.31,15.52,12.21,15.52a38.44,38.44,0,0,0,12-2.08l2.2,5.59Z"/><path class="cls-16" d="M1492.14,714.39c-14.17,14.9-31.64,18.16-40.43,18.16-29.64,0-46.84-17.11-46.84-37.36,0-11.94,6.82-23.46,16.33-30.7a57.68,57.68,0,0,1,35.06-12.23c21.5,0,36.87,13.58,36.72,27.58-.08,3.11-.46,5.56-3.52,6.14-4.42.8-35.58,2.12-59.49,2.81.35,19.94,15.66,29.3,32,29.3a46.58,46.58,0,0,0,26.19-8.11Zm-40.76-55.25c-9.62,0-18.26,7.85-20.27,21.57,10.56-.11,20.68-.22,31.63-.51,3.51-.11,4.88-.64,4.88-3.45C1467.85,668,1461.64,659.14,1451.38,659.14Z"/><path class="cls-16" d="M1563.28,730.48h-57.57V725c12.9-1,14.13-1.89,14.13-12.53V675.41c0-9.57-.92-10.32-12.53-11.86v-5a235,235,0,0,0,38-6.73v18.72c9.48-10.86,18.18-18.31,28.26-18.31,8.45,0,14.28,4.18,14.28,9.61,0,6.87-6.47,11.33-10.29,12.83a7.06,7.06,0,0,1-6.67-.68c-3.73-2.48-6.62-4.87-10.58-4.87s-10.57,3.32-15,10.65v32.6c0,10.7,1.44,11.33,18,12.59Z"/></svg>